<svg width="113" height="93" viewBox="0 0 113 93" fill="none" xmlns="http://www.w3.org/2000/svg">
<g clip-path="url(#clip0_1810_3050)">
<path d="M6.95029 47.4702L7.17942 46.7123L7.93752 46.1976L8.95022 46.5172L9.96291 46.175L10.9756 46.585L11.9883 46.5228L13.001 46.1948L14.0137 46.223L15.0264 46.0958L16.0419 46.4663L17.0546 46.5963L18.0673 46.0873L19.08 46.2683L20.0927 46.223L21.1053 46.5992L22.1209 46.5681L23.1336 46.1212L24.1463 46.2711L25.1589 46.5992L26.1716 46.5285L27.1872 46.5426L28.1998 46.5765L29.2125 46.1014L30.2252 46.4719L31.2379 46.2768L32.2506 46.4663L33.2661 46.3277L34.2788 46.1665L35.2915 46.4493L36.307 46.2711L37.3197 46.0901L38.3324 46.4012L39.3451 46.5794L40.3578 46.6105L41.3733 46.5822L42.386 46.5596L43.3987 46.5115L44.4142 46.4549L45.4269 46.5709L46.4396 46.4578L47.4523 46.3588L48.4678 46.5765L49.4805 46.4889L50.4932 46.3842L51.5059 46.3588L52.5186 46.503L53.5313 46.2655L54.5411 46.3786L55.5538 46.1184L56.5694 46.1156L57.582 46.3871L58.5947 46.0958L59.6074 46.2881L60.6201 46.2372L61.6328 46.5992L62.6455 46.3079L63.661 46.4832L64.6737 46.3305L65.6864 46.1269L66.7019 46.5313L67.7146 46.4465L68.7273 46.1014L69.74 46.5794L70.7555 46.1127L71.7682 46.52L72.7809 46.2824L73.7936 46.141L74.8091 46.076L75.8246 46.537L76.8373 46.3899L77.85 46.0703L78.8655 46.5907L79.8782 46.5115L80.8938 46.5624L81.9065 46.1495L82.922 46.4804L83.9347 46.5794L84.9502 46.1636L85.9629 46.1948L86.9784 46.3503L87.9939 46.1354L89.0066 46.3333L90.0221 46.0986L91.0348 46.4917L92.0475 46.4521L93.063 46.2881L94.0757 46.2485L95.0913 46.2881L96.1068 46.52L97.1223 46.2061L98.135 46.4295L99.1505 46.4012L100.166 46.5341L101.182 46.5172L102.197 46.2032L103.213 46.339L104.228 46.5963L105.246 46.2541L105.872 46.8424L106.104 47.4702L106.194 48.4827L106.59 49.498L106.389 50.5105L106.324 51.5258L106.565 52.5411L106.228 53.5564L106.42 54.5688L106.31 55.5841L106.22 56.5994V57.6147L106.57 58.63L106.403 59.6425L106.177 60.6578L106.279 61.6731L106.511 62.6884L106.403 63.7037L106.536 64.719L106.166 65.7343L106.539 66.7496L106.567 67.7648L106.463 68.7801L106.112 69.7954L106.548 70.8107L106.528 71.8232L106.299 72.8385L106.423 73.8538L106.514 74.8691L106.146 75.8844L106.118 76.8997L106.511 77.915L106.398 78.9303L106.42 79.9456L106.129 80.9637L106.647 81.979L106.44 82.9943L106.601 84.0124L106.174 85.0277L106.522 86.0458L106.367 87.064L106.253 88.0397L105.874 88.939L105.405 89.7676L104.882 90.5539L104.214 91.2241L103.447 91.7869L102.675 92.4374L101.685 92.5364L100.72 92.4515L99.7049 92.4855L98.6923 92.7287L97.6796 92.5449L96.664 92.9634H95.6513L94.6387 92.9408L93.6231 92.6665L92.6104 92.5675L91.5949 92.9974L90.5822 92.542L89.5667 92.8248L88.554 92.839L87.5385 92.7598L86.5258 92.9012L85.5103 92.6382L84.4976 92.7853L83.4821 92.5053L82.4694 92.9351L81.4539 92.9521L80.4412 92.5703L79.4256 92.9493L78.413 92.6438L77.3974 92.9097L76.3847 92.8022L75.3692 92.8956L74.3565 92.9238L73.341 92.7287L72.3283 92.8758L71.3128 92.5845L70.3001 92.4544L69.2846 92.675L68.2691 92.7032L67.2564 92.8871L66.2437 92.9408L65.231 92.6863L64.2183 92.8164L63.2056 92.6184L62.1901 92.559L61.1774 92.7768L60.1619 92.6438L59.1492 92.7909L58.1337 92.9917L57.121 92.9776L56.1083 92.757L55.0956 92.4826L54.0801 92.5986L53.0674 92.9578L52.0518 92.8701L51.0363 92.5505L50.0236 92.8192L49.0109 92.9323L47.9954 92.6014L46.9799 92.9719L45.9672 92.5364L44.9517 92.5675L43.939 92.9747L42.9235 92.6806L41.908 92.4685L40.8924 92.9238L39.8797 92.6297L38.8642 92.9804L37.8487 92.8164L36.836 92.4657L35.8205 92.6297L34.805 92.4487L33.7895 92.6014L32.7739 92.9267L31.7584 92.9945L30.7457 92.5279L29.7302 92.6156L28.7147 92.4911L27.6992 92.6778L26.6836 92.6552L25.6709 92.9182L24.6554 92.8333L23.6399 92.4431L22.6244 92.4544L21.6089 92.9549L20.5933 92.9408L19.5778 92.6156L18.5623 92.8192L17.5468 92.6325L16.5313 92.8503L15.5157 92.4855L14.4974 92.4996L13.4819 92.822L12.4635 92.7315L11.4395 92.8673L10.4438 92.6127L9.49617 92.1998L8.76069 91.4758L8.02522 90.7858L7.45381 89.9543L7.40006 88.9051L6.87392 88.0481L6.67025 87.064L6.85694 86.0487L6.72116 85.0362L6.75228 84.0209L6.52881 83.0056L6.62781 81.9903L6.57973 80.9778V79.9625L6.91918 78.9472L6.56275 77.9348L6.75511 76.9195L6.59387 75.9042L6.76642 74.8889L6.56841 73.8736L6.58255 72.8583L6.97009 71.843L6.97575 70.8305L6.83148 69.8152L6.63913 68.7999L6.80885 67.7846L6.63913 66.7693L6.92766 65.7541L6.63064 64.7388L6.61084 63.7235L6.64762 62.7082L6.66742 61.6929L6.57973 60.6776L6.90786 59.6623L7.05496 58.647L7.05213 57.6317L6.54295 56.6164L6.84563 55.6011L6.83997 54.5858L7.01535 53.5705L6.62499 52.5524L6.79188 51.5371L6.56275 50.5218L6.70702 49.5065L7.03798 48.5025L6.95029 47.4702Z" fill="#186FCF"/>
<path d="M0.0509175 48.7425L0 49.7267L0.319649 50.6656L0.393196 51.6356L0.585551 52.6425L1.48509 53.2081L1.82171 54.2715L2.89947 54.4609L3.60383 55.3009L4.62217 55.4593L5.63487 55.4508L6.65039 55.5837L7.66591 55.595L8.68143 55.1623L9.69978 55.4451L10.7153 55.3122L11.7308 55.53L12.7463 55.1058L13.7619 55.4536L14.7774 55.151L15.7957 55.2811L16.8113 55.513L17.8268 55.6346L18.8451 55.3122L19.8606 55.2528L20.8762 55.267L21.8917 55.1567L22.91 55.2415L23.9256 55.1821L24.9411 55.6007L25.9566 55.4932L26.9749 55.6318L27.9905 55.2302L29.0088 55.414L30.0243 55.1736L31.0399 55.513L32.0554 55.1142L33.0737 55.397L34.0892 55.3857L35.1048 55.6176L36.1231 55.2981L37.1386 55.4027L38.157 55.2896L39.1725 55.216L40.188 55.3292L41.2064 55.3207L42.2219 55.3122L43.2374 55.3631L44.2558 55.5865L45.2713 55.2811L46.2896 55.2302L47.3052 55.134L48.3207 55.3518L49.339 55.2019L50.3545 55.6487L51.3729 55.5102L52.3884 55.6063L53.4039 55.1991L54.4195 55.3772L55.435 55.2358L56.4505 55.6007L57.466 55.151L58.4815 55.5582L59.4999 55.5554L60.5154 55.5385L61.5309 55.5328L62.5465 55.134L63.562 55.3405L64.5803 55.5215L65.5958 55.5187L66.6114 55.2868L67.6297 55.1991L68.6452 55.2047L69.6636 55.5498L70.6791 55.1878L71.6946 55.4593L72.713 55.6205L73.7285 55.3546L74.7468 55.5554L75.7624 55.3461L76.7807 55.1878L77.7962 55.6374L78.8146 55.1708L79.8301 55.1821L80.8485 55.4593L81.8668 55.6261L82.8823 55.1906L83.9007 55.349L84.9162 55.6685L85.9345 55.2556L86.9529 55.2217L87.9684 55.5696L88.9868 55.5554L90.0051 55.2754L91.0235 55.4791L92.039 55.5667L93.0573 55.1567L94.0729 55.6092L95.0912 55.1962L96.1096 55.5894L97.1251 55.2274L98.1434 55.4168L99.1618 55.3772L100.18 55.595L101.198 55.3914L102.217 55.1821L103.235 55.5158L104.254 55.5413L105.272 55.4819L106.293 55.2556L107.311 55.1651L108.344 55.4649L109.294 55.0548L110.335 54.8399L110.833 53.8105L111.897 53.4428L112.463 52.5633L112.867 51.6017L113 50.5723L112.898 49.557L112.635 48.6011L112.895 47.5264L112.595 46.5676L112.126 45.6485L111.953 44.6643L111.569 43.7254L111.376 42.744L111.637 41.6693L110.958 40.7926L110.887 39.7886L110.788 38.7875L110.729 37.7807L110.183 36.8757L110.372 35.8151L109.795 34.9158L109.891 33.875L109.444 32.9474L109.45 31.9265L109.079 30.9847L108.961 29.9864L108.638 29.0333L108.729 27.9897L108.406 27.0366L108.225 26.0524L107.767 25.1616L106.845 24.644L106.259 23.9031L105.473 23.3714L104.669 22.8086L103.747 22.4098L102.746 22.3872L101.733 22.7322L100.72 22.4438L99.7049 22.7435L98.6922 22.5965L97.6767 22.6502L96.664 22.5201L95.6513 22.8651L94.6386 22.786L93.6231 22.3335L92.6104 22.5201L91.5977 22.8255L90.5822 22.3335L89.5695 22.6643L88.554 22.3844L87.5413 22.3985L86.5286 22.834L85.5131 22.5654L84.5004 22.4749L83.4877 22.6728L82.4722 22.6474L81.4595 22.6163L80.4439 22.7068L79.4312 22.5088L78.4186 22.6813L77.403 22.8567L76.3903 22.8058L75.3748 22.489L74.3621 22.7039L73.3466 22.4607L72.3339 22.3306L71.3212 22.7039H70.3057L69.293 22.554L68.2775 22.6757L67.2648 22.5399L66.2493 22.752L65.2366 22.3137L64.2211 22.3617L63.2084 22.3957L62.1985 22.8312L61.1858 22.6134L60.1731 22.588L59.1576 22.4833L58.1449 22.3533L57.1294 22.3165L56.1167 22.3702L55.104 22.6248L54.0913 22.5088L53.0786 22.5399L52.0631 22.605L51.0504 22.6955L50.0349 22.653L49.0222 22.3335L48.0067 22.3052L46.994 22.5173L45.9813 22.4381L44.9658 22.7973L43.9531 22.3363L42.9376 22.6106L41.9249 22.4918L40.9094 22.5229L39.8967 22.8199L38.8811 22.8538L37.8656 22.424L36.8529 22.4664L35.8374 22.6813L34.8247 22.7605L33.8092 22.5003L32.7937 22.6134L31.7782 22.7973L30.7655 22.6559L29.7499 22.6757L28.7344 22.3419L27.7217 22.5654L26.7062 22.6841L25.6907 22.5003L24.678 22.6163L23.6625 22.6361L22.647 22.3448L21.6343 22.3731L20.6187 22.7435L19.6032 22.5343L18.5877 22.5484L17.5722 22.3391L16.5567 22.8001L15.5411 22.4975L14.5256 22.7266L13.5101 22.8029L12.4946 22.7973L11.4791 22.7605L10.4607 22.3221L9.44519 22.8255L8.4127 22.3872L7.41981 22.6757L6.6419 23.3799L5.86117 23.9653L4.92485 24.4432L4.73532 25.5151L3.97439 26.2419L4.04511 27.2798L3.71132 28.2782L3.4143 29.2793L3.31812 30.3172L3.05788 31.3269L2.85986 32.3478L2.78915 33.3886L2.45535 34.3869L2.63922 35.4729L2.0169 36.4175L2.31674 37.5261L1.81323 38.4934L1.47378 39.486L1.45681 40.5409L1.08907 41.5308L1.06644 42.5828L1.07775 43.6405L0.902371 44.6643L0.404511 45.6344L0.155581 46.644L0.130122 47.6989L0.0509175 48.7425Z" fill="#003C7E"/>
<path d="M36.1714 15.7951L36.559 14.9948L37.3567 14.7685L38.3666 14.6045L39.3792 14.7572L40.3891 14.6384L41.4018 14.9326L42.4145 14.7403L43.4244 14.5875L44.437 14.4688L45.4497 14.4801L46.4624 14.8562L47.4723 14.6441L48.485 14.7176L49.4977 14.8619L50.5104 14.497L51.5202 14.5508L52.5329 14.9128L53.5456 14.5904L54.5583 14.415L55.571 14.8251L56.5837 14.7883L57.5964 14.8619L58.6062 14.5225L59.6189 14.7374L60.6316 14.8308L61.6443 14.8845L62.6542 14.432L63.6669 14.4009L64.6796 14.497L65.6923 14.5564L66.705 14.8732L67.7176 14.8336L68.7303 14.6526L69.7459 14.7403L70.7585 14.4603L71.7712 14.5706L72.7839 14.6922L73.7966 14.678L74.8121 14.8025L75.8277 14.7091L76.515 15.1051L76.7385 15.7951L76.7923 16.8189L77.1204 17.8427L77.0751 18.8665L76.7611 19.8903L76.9224 20.914L77.1204 21.9378L77.1713 22.9616L77.0469 23.9854L76.9139 25.0092L77.1374 26.033L77.0638 27.0567L76.9139 28.0805L76.8177 29.1043L76.9988 30.1281L76.9224 31.1519L76.7017 32.1756L76.7216 33.1994L77.1091 34.2232L76.962 35.247L76.7781 36.2708L76.8913 37.2945L77.0384 38.3183L77.1657 39.3393L76.8602 40.3631L76.9818 41.3868L77.1572 42.4106L76.8121 43.4344L77.1798 44.4582L76.7414 45.482L77.0667 46.5029L76.9111 47.5267L77.1826 48.5505L76.8092 49.5742L76.8262 50.598L76.9535 51.6218L77.2251 52.6456L76.9337 53.6694L77.0016 54.6932L76.979 55.7169L76.6989 56.7407L77.0186 57.7645L76.73 58.7883L77.0157 59.8121L76.9026 60.8387L77.1628 61.8624L77.1374 62.8862L76.8856 63.91L76.979 64.9338L77.044 65.9604L76.88 66.9842L76.9592 68.008L76.8969 69.0346L77.0157 70.0583L76.7611 71.0821L77.1968 72.1087L76.9139 73.1325L76.7357 74.1563L76.7668 75.1829L76.7498 76.2067L76.7923 77.2333L77.1034 78.2571L76.8488 79.2809L77.1261 80.3046L77.1628 81.3312L76.8092 82.355L77.2307 83.3788L76.9988 84.4054L76.7357 85.432L77.1459 86.4558L77.1317 87.4824L77.0299 88.5062L76.7696 89.5328L76.8262 90.5594L76.7187 91.5888L76.7046 92.4627L75.8277 92.6692L74.815 92.9831H73.8051L72.7952 92.4769L71.7826 92.9492L70.7699 92.6805L69.7572 92.4514L68.7473 92.7399L67.7346 92.8332L66.7219 92.9152L65.7121 92.9916L64.6994 92.706L63.6867 92.5363L62.674 92.8078L61.6641 92.6579L60.6514 92.5787L59.6387 92.5052L58.626 92.5221L57.6134 92.525L56.6007 92.5052L55.588 92.9859L54.5753 92.9152L53.5626 92.7116L52.5527 92.8134L51.54 92.9039L50.5273 92.8247L49.5146 92.5759L48.5048 92.5108L47.4921 92.8247L46.4794 92.9068L45.4667 92.6155L44.4512 92.7371L43.4385 92.7456L42.4258 92.5023L41.4131 92.9661L40.4004 92.4373L39.3877 92.8615L38.3722 92.9407L37.3567 92.7654L36.6382 92.3072L36.3468 91.5888L36.3214 90.5651L36.2676 89.5413L36.0979 88.5175L36.2931 87.4937L35.9706 86.4699L36.0243 85.4462L36.1573 84.4224L36.4345 83.3986L36.2704 82.3748L36.4147 81.351L36.1884 80.3273L36.2478 79.3007L36.2959 78.2769L36.0187 77.2531L36.2704 76.2293L36.3977 75.2055L36.327 74.1817L36.1092 73.158L36.245 72.1342L36.2054 71.1104L36.2846 70.0866L35.9961 69.0657L36.1686 68.0419L36.1205 67.0181L36.4996 65.9972L36.1375 64.9734L36.4826 63.9468L35.9678 62.923L36.4175 61.902L36.2987 60.8783L36.3044 59.8545L36.4571 58.8307L36.2733 57.8097L36.0611 56.7831L36.3525 55.7594L36.4402 54.7356L36.2789 53.7118L36.2761 52.688L36.4091 51.6642L36.2252 50.6405L36.03 49.6167L36.3525 48.5929L36.1036 47.5691L36.0215 46.5453L36.0724 45.5187L36.1007 44.4949L36.3044 43.4712L36.4769 42.4474L36.4091 41.4236L36.5024 40.397L36.2704 39.3732L35.9791 38.3494L36.112 37.3228L36.2478 36.299L36.344 35.2753L36.2308 34.2486L36.2167 33.2249L36.4571 32.2011L36.2365 31.1745L36.1205 30.1507L36.4968 29.1269L36.3553 28.1003L36.3808 27.0765L36.03 26.0527L36.1573 25.0261L36.262 24.0024L36.4345 22.9757L36.0838 21.952L36.4515 20.9254L36.2591 19.8988L36.0753 18.875L36.3468 17.8484L36.0187 16.8274L36.1714 15.7951Z" fill="#FFC42E"/>
<path d="M31.8038 63.3073L31.7585 62.3203L31.9311 61.3333L32.4487 60.4736L33.1276 59.758L33.8631 59.1443L34.6552 58.6296L35.3737 57.8604L36.4033 57.9085L37.3566 57.5889L38.3665 57.9311L39.3792 57.818L40.389 57.883L41.4017 57.4899L42.4144 57.9226L43.4243 57.8462L44.437 57.4135L45.4497 57.5493L46.4623 57.9085L47.4722 57.9311L48.4849 57.6624L49.4976 57.6539L50.5103 57.5125L51.5201 57.5663L52.5328 57.4588L53.5455 57.9085L54.5582 57.8547L55.5709 57.6285L56.5836 57.5182L57.5963 57.8151L58.6062 57.7501L59.6188 57.9L60.6315 57.4729L61.6442 57.8689L62.6541 57.6483L63.6668 57.8264L64.6795 57.8208L65.6922 57.7614L66.7049 57.422L67.7176 57.9L68.7302 57.8293L69.7458 57.5069L70.7585 57.5097L71.7712 57.7529L72.7838 57.6228L73.7965 57.4107L74.8121 57.9339L75.8276 57.3853L76.7978 57.8095L77.802 57.8802L78.7864 58.18L79.5049 58.9266L80.2376 59.6053L80.7241 60.4792L81.1004 61.387L81.4879 62.309L81.222 63.3073L81.2984 64.3142L81.4738 65.3238L81.519 66.3334L81.3182 67.3431L81.3945 68.3527L81.652 69.3624L81.5247 70.372L81.7623 71.3816L81.4766 72.3913L81.3351 73.4009L81.2333 74.4134L81.5614 75.423L81.4624 76.4298L81.6491 77.4395L81.7142 78.4491L81.5303 79.4588L81.7425 80.4684L81.6237 81.478L81.2588 82.4877L81.2729 83.5001L81.42 84.5098L81.6944 85.5194L81.7057 86.5319L81.652 87.5415L81.6463 88.5512L81.6124 89.5636L81.5897 90.5761L81.6972 91.5886L81.0296 92.2645L80.3536 92.8612L79.3437 92.5388L78.3338 92.997L77.324 92.5162L76.3141 92.6208L75.3043 92.8443L74.2944 92.5219L73.2845 92.7962L72.2718 92.6774H71.262L70.2521 92.5416L69.2422 92.6378L68.2324 92.4455L67.2197 92.5332L66.2098 92.9574L65.2 92.6576L64.1873 92.9319L63.1774 92.9404L62.1676 92.4709L61.1549 92.5728L60.145 92.454L59.1351 92.5812L58.1224 92.5162L57.1126 92.6831L56.0999 92.6265L55.09 92.5897L54.0773 92.7198L53.0675 92.7226L52.0548 92.7311L51.0449 92.8923L50.0322 92.7933L49.0224 92.7594L48.0097 92.5699L46.9998 92.7736L45.9899 92.9065L44.9773 92.6463L43.9674 92.5982L42.9547 92.8527L41.942 92.7792L40.9321 92.4483L39.9194 92.8641L38.9068 92.5756L37.8941 92.7962L36.8842 92.5558L35.8715 92.4992L34.8588 92.799L33.8433 92.9008L32.8306 92.5558L31.8349 92.5841L31.8999 91.5886L31.8603 90.5789L31.7557 89.5693L31.535 88.5597L31.6935 87.55L31.7925 86.5404L31.6199 85.5307L31.552 84.5211L31.9763 83.5115L31.6029 82.5018L31.8434 81.4922L31.5803 80.4825L31.6454 79.4729L31.47 78.4633L31.4898 77.4536L31.965 76.444L31.5322 75.4343L31.634 74.4247L31.9537 73.4151L31.9141 72.4054L31.7783 71.3958L31.9763 70.3833L31.5944 69.3737L31.436 68.364L31.8717 67.3516L31.7048 66.3419L31.8066 65.3323L31.4417 64.3057L31.8038 63.3073Z" fill="#003C7E"/>
<path d="M46.2754 76.8828L46.3603 75.876L46.6941 74.9257L47.2117 74.0801L47.8369 73.3335L48.4026 72.5161L49.3786 72.2248L50.0377 71.3114L51.0984 71.3934L52.0659 71.3L53.0701 71.1586L54.0771 70.9805L55.0813 70.9833L56.0855 71.3057L57.0926 71.3594L58.0968 71.1898L59.1038 70.9946L60.1108 71.3962L61.1179 71.1728L62.0994 71.3114L63.081 71.4895L63.8193 72.205L64.9169 72.3549L65.3157 73.3617L65.9296 74.1055L66.6735 74.8607L66.5915 75.9155L66.6085 76.8828L66.9281 77.8698L66.5887 78.8596L66.5095 79.8466L66.699 80.8365L66.6792 81.8263L66.9083 82.8162L66.4953 83.806L66.9904 84.7958L66.5717 85.7857L66.8744 86.7755L66.6962 87.7654L66.8772 88.7552L66.8263 89.7451L66.6622 90.7349L66.6085 91.7276L66.6226 92.5619L65.757 92.5591L64.7387 93.0002L63.7203 92.5506L62.702 92.477L61.6864 92.921L60.6681 92.9267L59.6526 92.9918L58.6342 92.9295L57.6159 92.61L56.5975 92.8419L55.5792 92.938L54.5608 92.8956L53.5425 92.5958L52.5241 92.8023L51.5058 92.4827L50.4874 92.8956L49.4691 92.9833L48.4479 92.9295L47.4296 92.7796L46.5753 92.5477L46.1849 91.7304L46.1651 90.7406L46.5159 89.7535L46.6177 88.7637L46.3999 87.7739L46.1849 86.784L46.5102 85.797L46.6007 84.8072L46.6149 83.8173L46.216 82.8246L46.1396 81.8376L46.629 80.8478L46.3405 79.8579L46.6177 78.8653L46.2443 77.8839L46.2754 76.8828Z" fill="#FFC42E"/>
<path d="M28.4008 19.7488L28.2056 18.6628L28.4234 17.5966L28.9891 16.652L29.4615 15.7131L29.7812 14.6666L30.61 13.9624L31.1418 12.9924L32.0329 12.3759L32.8871 11.6999L33.8489 11.3775L34.7258 10.8996L35.5547 10.334L36.4797 9.93803L37.2972 9.35543L38.2759 9.06696L39.0425 8.39104L39.8515 7.78865L40.785 7.41251L41.6817 6.97415L42.652 6.66023L43.4836 6.10026L44.3492 5.60251L45.1724 5.02558L46.1398 4.71165L47.0026 4.20542L47.871 3.7105L48.6037 2.96953L49.6758 2.84226L50.5498 2.353L51.3278 1.69122L52.2386 1.26983L53.1268 0.780562L54.0264 0.243219L55.0391 0L56.097 0.325234L57.0956 0.164031L58.0856 0.350687L59.1577 0.243219L59.9837 0.955906L60.9314 1.29528L61.9044 1.59506L62.821 2.00231L63.4716 2.89317L64.3485 3.37112L65.2056 3.88584L66.0768 4.36945L67.0443 4.68054L67.907 5.18395L68.8264 5.58272L69.7061 6.05501L70.6396 6.43115L71.5731 6.80729L72.3312 7.50584L73.1261 8.13085L73.9832 8.6484L74.8856 9.0811L75.7681 9.55057L76.7299 9.87581L77.7087 10.1699L78.5516 10.7158L79.4455 11.1654L80.2093 11.8583L81.1795 12.3334L81.8103 13.2441L82.4977 14.0275L83.27 14.7571L83.7339 15.7074L84.4015 16.5756L84.7692 17.5966L84.5373 18.7165L84.7579 19.7488L84.7353 20.7782L84.9078 21.8727L84.4298 22.8371L83.7565 23.6742L83.6123 24.7885L82.758 25.4588L81.9886 26.1488L81.3719 27.0227L80.4271 27.4894L79.6011 28.1738L78.611 28.564L77.5531 28.6913L76.5206 28.9034L75.4711 28.7281L74.4273 28.7083L73.4005 28.5131L72.3736 28.253L71.4119 27.8061L70.583 27.1896L69.61 26.8304L68.8914 26.0159L67.8816 25.7303L66.9028 25.3824L66.1532 24.6188L65.1773 24.2653L64.439 23.4819L63.4037 23.2359L62.5777 22.6108L61.7093 22.065L60.7164 21.7426L59.8479 21.194L58.9399 20.716L57.9074 20.4615L57.0616 19.8676L56.1281 19.8817L55.0843 20.1051L54.3828 20.9536L53.3956 21.2816L52.4225 21.6436L51.5993 22.2715L50.7394 22.8314L49.6333 22.9502L48.9261 23.7902L48.1086 24.4265L47.0846 24.6952L46.0748 24.9865L45.1611 25.4531L44.4115 26.2167L43.3903 26.4882L42.7114 27.3819L41.6308 27.5487L40.7398 28.0833L39.7157 28.2671L38.737 28.5895L37.7045 28.516L36.6805 28.6857L35.6961 28.3435L34.6975 28.1681L33.583 28.1738L32.6184 27.7213L31.931 26.8643L31.2578 26.0781L30.4346 25.4531L29.8378 24.6132L29.405 23.6827L28.6921 22.8597L28.7147 21.7709L28.2706 20.798L28.4573 19.7912L28.4008 19.7488Z" fill="#186FCF"/>
<path d="M46.6123 39.5512L46.3945 38.5472L46.8386 37.6111L47.014 36.6439L47.031 35.5918L47.6618 34.7773L48.287 34.0024L48.5161 32.9249L49.3251 32.2858L49.9786 31.491L50.9545 31.1149L51.7409 30.4758L52.6744 30.0968L53.6899 29.9865L54.5583 29.3247L55.5908 29.3841L56.5922 29.6471L57.5935 29.3813L58.5751 29.5821L59.6104 29.599L60.5524 29.9893L61.517 30.34L62.2582 31.0725L63.1662 31.542L63.8309 32.314L64.2892 33.236L65.2397 33.7733L65.4631 34.8084L66.2467 35.5522L66.4334 36.5647L66.473 37.5857L66.9199 38.5331L66.7361 39.5512L66.5154 40.5269L66.7926 41.579L66.1929 42.4613L65.9893 43.4427L65.8224 44.4834L64.9087 45.1085L64.4533 45.9993L63.9611 46.9156L62.9116 47.2494L62.3854 48.2166L61.3133 48.3806L60.493 48.9688L59.5256 49.2234L58.5497 49.3931L57.5681 49.4638L56.5922 49.5628L55.5993 49.6363L54.6347 49.3789L53.6842 49.1301L52.6093 49.1583L51.9134 48.3014L50.7876 48.2335L50.0662 47.5011L49.5033 46.6356L48.7509 45.9823L48.0324 45.2668L47.7156 44.294L47.3082 43.3946L46.9688 42.4698L46.8132 41.4941L46.3125 40.5637L46.6123 39.5512Z" fill="#F46CA4"/>
</g>
<defs>
<clipPath id="clip0_1810_3050">
<rect width="113" height="93" fill="white"/>
</clipPath>
</defs>
</svg>
